<svg xmlns="http://www.w3.org/2000/svg" width="375" viewBox="0 0 375 251.25" height="251.25" version="1.0"><defs><clipPath id="a"><path d="M 127.269531 6 L 247 6 L 247 184.539062 L 127.269531 184.539062 Z M 127.269531 6"/></clipPath></defs><path fill="#CCDCFF" d="M 187.636719 25.9375 C 143.863281 25.9375 108.375 61.425781 108.375 105.203125 C 108.375 148.976562 143.863281 184.464844 187.636719 184.464844 C 231.414062 184.464844 266.902344 148.976562 266.902344 105.203125 C 266.902344 61.425781 231.414062 25.9375 187.636719 25.9375"/><path fill="#88ADFF" d="M 238.050781 110.550781 C 238.476562 108.851562 239.320312 107.300781 240.078125 105.726562 C 241.378906 103.007812 242.433594 100.199219 243.25 97.296875 C 244.066406 94.398438 244.632812 91.449219 244.945312 88.449219 C 245.253906 85.453125 245.3125 82.449219 245.109375 79.441406 C 244.90625 76.4375 244.449219 73.46875 243.742188 70.539062 C 243.339844 68.917969 242.835938 67.265625 241.707031 66.027344 C 239.824219 63.972656 236.671875 63.640625 233.949219 64.210938 C 230.34375 64.960938 227.148438 66.984375 224.042969 68.972656 C 221.082031 70.867188 217.882812 73.085938 217.050781 76.511719 C 216.550781 78.582031 217.007812 80.875 216.109375 82.800781 C 215.132812 84.910156 212.804688 86.023438 210.566406 86.632812 C 207.148438 87.558594 203.402344 87.652344 200.152344 86.242188 C 196.898438 84.832031 194.277344 81.734375 194.03125 78.191406 C 193.953125 77.078125 194.089844 75.898438 193.582031 74.902344 C 192.617188 72.988281 189.714844 72.957031 188.03125 74.289062 C 186.753906 72.710938 184.097656 72.085938 182.707031 73.5625 C 182.707031 76.109375 182.652344 78.867188 181.1875 80.960938 C 180.433594 81.957031 179.527344 82.785156 178.472656 83.445312 C 175.078125 85.765625 170.976562 87.332031 166.898438 86.824219 C 162.820312 86.316406 158.921875 83.339844 158.199219 79.285156 C 157.9375 77.832031 158.054688 76.195312 157.199219 74.976562 C 156.667969 74.230469 155.839844 73.757812 155.042969 73.316406 C 151.289062 71.222656 147.511719 69.171875 143.710938 67.164062 C 140.382812 65.410156 136.007812 63.785156 133.175781 66.265625 C 131.78125 67.488281 131.226562 69.398438 130.835938 71.210938 C 130.136719 74.574219 129.761719 77.972656 129.722656 81.40625 C 129.679688 84.84375 129.972656 88.25 130.59375 91.628906 C 131.214844 95.003906 132.160156 98.292969 133.421875 101.484375 C 134.683594 104.679688 136.242188 107.71875 138.09375 110.609375 L 139.777344 109.269531 C 138.394531 112.335938 137.285156 115.496094 136.445312 118.753906 C 135.605469 122.007812 135.046875 125.3125 134.773438 128.664062 C 134.5 132.015625 134.515625 135.367188 134.816406 138.71875 C 135.117188 142.066406 135.699219 145.367188 136.566406 148.617188 C 138.414062 155.460938 141.640625 162.121094 146.902344 166.863281 C 150.09375 169.738281 153.90625 171.804688 157.675781 173.847656 C 162.117188 176.246094 166.59375 178.664062 171.410156 180.160156 C 175.761719 181.503906 180.425781 182.058594 184.84375 181.125 C 185.230469 181.511719 185.695312 181.71875 186.238281 181.753906 C 196.988281 183.640625 207.8125 179.433594 217.652344 174.707031 C 223.59375 171.855469 229.667969 168.574219 233.382812 163.121094 C 235.058594 160.660156 236.171875 157.859375 237.082031 155.027344 C 238.808594 149.617188 239.832031 144.074219 240.144531 138.402344 C 240.457031 132.730469 240.050781 127.109375 238.925781 121.542969 C 238.1875 117.90625 237.136719 114.144531 238.050781 110.550781 Z M 197.46875 160.195312 L 195.25 169.367188 C 194.332031 173.167969 192.675781 177.695312 188.828125 178.335938 C 187.84375 178.5 186.789062 178.375 185.863281 178.75 L 185.785156 178.789062 C 185.0625 177.390625 183.644531 176.214844 182.554688 174.984375 C 179.46875 171.507812 178.539062 166.667969 177.730469 162.089844 C 177.5625 161.117188 177.390625 160.101562 177.730469 159.179688 C 178.078125 158.183594 178.921875 157.457031 179.765625 156.835938 C 181.640625 155.429688 183.765625 154.257812 185.21875 152.394531 C 186.128906 151.175781 186.75 149.820312 187.085938 148.332031 C 188.492188 152.3125 190.9375 156.539062 195.058594 157.378906 C 195.980469 157.566406 197.105469 157.683594 197.507812 158.539062 C 197.730469 159.046875 197.601562 159.644531 197.46875 160.195312 Z M 197.46875 160.195312"/><path fill="#FF1A6C" d="M 178.164062 158.707031 C 179.429688 165.25 181.609375 171.875 186.21875 176.664062 C 186.535156 177.054688 186.925781 177.339844 187.390625 177.523438 C 188.3125 177.796875 189.246094 177.160156 189.929688 176.503906 C 194.316406 172.378906 196.011719 166.253906 197.542969 160.4375 C 197.640625 160.164062 197.660156 159.882812 197.601562 159.597656 C 197.480469 159.289062 197.277344 159.046875 196.992188 158.871094 C 193.808594 156.53125 189.378906 155.347656 187.761719 151.742188 C 186.359375 154.03125 184.578125 155.96875 182.421875 157.558594 C 181.867188 157.960938 181.089844 158.339844 180.550781 157.921875"/><path fill="#FFF" d="M 149.597656 10.773438 C 146.484375 13.066406 146.269531 17.742188 147.460938 21.425781 C 148.652344 25.109375 150.914062 28.402344 151.867188 32.160156 C 152.988281 36.660156 152.113281 41.398438 152.367188 46.03125 C 152.480469 48.40625 152.910156 50.71875 153.660156 52.976562 C 154.410156 55.230469 155.453125 57.339844 156.785156 59.304688 C 158.484375 61.765625 160.636719 63.878906 162.898438 65.851562 C 163.253906 66.097656 163.492188 66.425781 163.625 66.839844 C 163.664062 67.246094 163.570312 67.625 163.339844 67.964844 C 162.253906 70.023438 160.542969 71.703125 159.355469 73.707031 C 158.164062 75.714844 157.542969 78.34375 158.71875 80.351562 C 159.324219 81.246094 160.089844 81.972656 161.019531 82.53125 C 164.644531 84.96875 169.175781 86.40625 173.402344 85.328125 C 177.628906 84.246094 181.199219 80.144531 180.707031 75.800781 C 180.628906 75.070312 180.460938 74.277344 180.875 73.679688 C 181.179688 73.308594 181.566406 73.066406 182.03125 72.953125 C 185.03125 71.957031 188.296875 72.832031 191.335938 73.710938 C 191.730469 73.800781 192.089844 73.960938 192.421875 74.1875 C 193.175781 74.777344 193.242188 75.855469 193.378906 76.796875 C 194.289062 83.082031 201.121094 87.367188 207.421875 86.796875 C 210.039062 86.5625 212.640625 85.621094 214.585938 83.859375 C 216.53125 82.09375 217.757812 79.457031 217.527344 76.832031 C 217.292969 74.207031 215.667969 71.828125 213.636719 70.105469 C 213.144531 69.75 212.742188 69.3125 212.429688 68.792969 C 211.671875 67.257812 213.078125 65.589844 214.265625 64.359375 C 215.921875 62.613281 217.355469 60.699219 218.570312 58.617188 C 219.78125 56.535156 220.742188 54.34375 221.445312 52.039062 C 222.148438 49.734375 222.582031 47.378906 222.738281 44.972656 C 222.898438 42.566406 222.777344 40.175781 222.382812 37.796875 C 222.136719 36.378906 221.789062 34.933594 222.019531 33.515625 C 222.253906 32.097656 223.039062 30.894531 223.707031 29.65625 C 224.488281 28.183594 225.128906 26.652344 225.628906 25.058594 C 226.125 23.46875 226.472656 21.84375 226.667969 20.1875 C 226.863281 18.53125 226.90625 16.871094 226.792969 15.207031 C 226.679688 13.542969 226.414062 11.902344 225.996094 10.289062 C 221.828125 10.210938 219.691406 15.605469 215.738281 16.917969 C 213.164062 17.773438 210.398438 16.730469 207.84375 15.828125 C 195.753906 11.515625 181.917969 10.1875 170.355469 15.761719 C 169.742188 16.058594 169.101562 16.378906 168.421875 16.324219 C 167.746094 16.269531 167.128906 15.835938 166.5625 15.398438 C 161.816406 11.863281 155.945312 9.074219 150.121094 10.148438"/><path fill="#547FDD" d="M 172.777344 103.921875 C 171.484375 102.371094 169.980469 100.949219 168.175781 100.046875 C 164.011719 97.964844 158.753906 99.050781 155.066406 101.902344 C 151.378906 104.753906 149.089844 109.082031 147.707031 113.535156 C 146.851562 116.304688 146.320312 119.296875 146.773438 122.128906 C 146.796875 122.554688 146.835938 122.980469 146.898438 123.410156 C 146.980469 123.972656 147.089844 124.527344 147.226562 125.074219 C 147.367188 125.625 147.535156 126.164062 147.734375 126.691406 C 147.929688 127.222656 148.15625 127.742188 148.40625 128.25 C 148.660156 128.753906 148.9375 129.246094 149.242188 129.722656 C 149.550781 130.199219 149.878906 130.65625 150.234375 131.097656 C 150.585938 131.539062 150.964844 131.957031 151.363281 132.359375 C 151.761719 132.757812 152.183594 133.136719 152.621094 133.492188 C 153.0625 133.84375 153.519531 134.175781 153.996094 134.480469 C 154.46875 134.785156 154.960938 135.066406 155.464844 135.320312 C 155.972656 135.570312 156.488281 135.796875 157.015625 135.992188 C 157.546875 136.191406 158.085938 136.359375 158.632812 136.496094 C 159.179688 136.636719 159.730469 136.746094 160.289062 136.824219 C 160.851562 136.902344 161.410156 136.953125 161.976562 136.972656 C 162.539062 136.992188 163.101562 136.980469 163.667969 136.9375 C 164.230469 136.894531 164.789062 136.824219 165.34375 136.722656 C 165.898438 136.621094 166.445312 136.488281 166.988281 136.328125 C 168.90625 135.695312 170.738281 134.867188 172.484375 133.847656 C 174.199219 132.910156 175.953125 131.882812 177.050781 130.261719 C 177.792969 129.078125 178.277344 127.792969 178.5 126.410156 C 178.882812 124.441406 179.042969 122.453125 178.984375 120.449219 C 178.925781 118.441406 178.648438 116.46875 178.152344 114.523438 C 177.660156 112.578125 176.957031 110.714844 176.050781 108.925781 C 175.144531 107.136719 174.050781 105.46875 172.777344 103.921875 Z M 172.777344 103.921875"/><path fill="#547FDD" d="M 226.792969 168.605469 C 224.777344 167.570312 223.503906 165.5 222.625 163.40625 C 221.695312 161.1875 221.085938 158.78125 221.285156 156.386719 C 221.484375 153.988281 222.582031 151.597656 224.527344 150.207031 C 226.703125 148.644531 229.515625 148.484375 232.175781 148.386719 C 231.707031 145.238281 231.902344 141.921875 233.265625 139.039062 C 234.628906 136.15625 237.226562 133.777344 240.351562 133.203125 C 241.203125 140.519531 238.714844 147.746094 236.269531 154.699219 C 234.429688 159.917969 232.183594 165.605469 227.28125 168.148438"/><path fill="#547FDD" d="M 151.949219 170.402344 C 153.824219 169.554688 155.738281 168.730469 157.75 168.40625 C 158.167969 168.339844 158.589844 168.292969 159.015625 168.269531 C 159.441406 168.246094 159.863281 168.246094 160.289062 168.265625 C 160.714844 168.285156 161.136719 168.328125 161.554688 168.394531 C 161.976562 168.457031 162.390625 168.542969 162.804688 168.652344 C 163.214844 168.761719 163.621094 168.890625 164.019531 169.039062 C 164.417969 169.1875 164.804688 169.359375 165.1875 169.550781 C 165.566406 169.738281 165.9375 169.949219 166.292969 170.179688 C 166.652344 170.40625 167 170.65625 167.332031 170.917969 C 167.664062 171.183594 167.984375 171.464844 168.289062 171.765625 C 168.59375 172.0625 168.878906 172.375 169.152344 172.703125 C 169.421875 173.03125 169.675781 173.371094 169.914062 173.726562 C 170.148438 174.082031 170.367188 174.445312 170.566406 174.824219 C 170.765625 175.203125 170.945312 175.585938 171.101562 175.984375 C 171.261719 176.378906 171.398438 176.78125 171.515625 177.191406 C 171.632812 177.601562 171.726562 178.015625 171.800781 178.4375 C 171.875 178.855469 171.925781 179.277344 171.957031 179.703125 C 164.742188 177.414062 157.960938 174.199219 151.613281 170.058594"/><path fill="#547FDD" d="M 153.824219 86.164062 C 153.644531 86.527344 153.097656 86.296875 152.808594 86.039062 L 144.332031 78.835938 C 143.78125 79.742188 143.609375 80.824219 143.453125 81.875 C 142.636719 87.789062 141.441406 94.179688 142.613281 100.03125 C 145.183594 96.816406 149.140625 93.261719 151.707031 90.042969 C 152.671875 88.839844 153.785156 87.542969 155.332031 87.324219 C 152.160156 85.207031 149.03125 83.023438 145.9375 80.78125"/><path fill="#547FDD" d="M 220.21875 87.992188 C 219.996094 87.925781 220.105469 87.539062 220.335938 87.5 C 220.582031 87.496094 220.785156 87.589844 220.945312 87.777344 C 225.179688 91.535156 228.847656 95.789062 231.949219 100.53125 C 232.988281 95.238281 233.433594 89.894531 233.289062 84.5 C 233.253906 83.132812 233.175781 81.726562 232.652344 80.460938 C 232.5625 80.191406 232.410156 79.96875 232.195312 79.785156 C 231.683594 79.421875 230.972656 79.699219 230.421875 80.015625 C 227.3125 81.808594 224.675781 84.136719 222.515625 87.007812"/><path fill="#547FDD" d="M 181.402344 12.125 C 181.855469 18.492188 182.445312 25.191406 186.046875 30.453125 C 186.179688 30.710938 186.386719 30.878906 186.667969 30.957031 C 187.03125 31.011719 187.324219 30.664062 187.523438 30.351562 C 188.609375 28.675781 189.457031 26.882812 190.058594 24.976562 C 191.011719 21.949219 191.308594 18.757812 191.589844 15.59375 C 191.699219 14.371094 191.785156 13.050781 191.140625 12.003906 C 190.496094 10.957031 188.808594 10.5 188.050781 11.46875"/><path fill="#547FDD" d="M 167.128906 17.1875 C 168.980469 20.871094 171.40625 24.121094 174.410156 26.941406 C 174.941406 27.433594 175.816406 27.902344 176.296875 27.363281 C 176.472656 27.113281 176.558594 26.835938 176.550781 26.53125 C 176.894531 21.988281 176.460938 17.523438 175.242188 13.132812"/><path fill="#547FDD" d="M 197.363281 12.917969 L 196.757812 19.761719 C 196.546875 22.160156 196.355469 24.695312 197.410156 26.863281 C 197.589844 27.226562 197.886719 27.625 198.292969 27.589844 C 198.621094 27.570312 198.859375 27.28125 199.058594 27.015625 C 200.863281 24.558594 202.636719 22.078125 204.375 19.570312 C 205.046875 18.609375 205.738281 17.542969 205.660156 16.371094"/><path fill="#547FDD" d="M 207.367188 15.296875 L 211.964844 18.085938 C 212.261719 18.304688 212.59375 18.433594 212.960938 18.472656 C 213.585938 18.472656 214.078125 17.96875 214.472656 17.480469 C 216.371094 15.136719 218.203125 12.492188 220.976562 11.34375 C 221.367188 11.230469 221.703125 11.03125 221.992188 10.746094 C 222.519531 10.078125 221.96875 9 221.164062 8.714844 C 220.359375 8.425781 219.480469 8.671875 218.667969 8.941406 C 215.480469 10 212.414062 11.339844 209.476562 12.964844"/><path fill="#547FDD" d="M 151.621094 10.246094 C 153.457031 11.058594 155.105469 12.152344 156.566406 13.53125 C 158.027344 14.910156 159.21875 16.492188 160.140625 18.277344 C 160.308594 18.613281 160.527344 19.003906 160.898438 19.03125 C 161.179688 19.019531 161.421875 18.910156 161.625 18.710938 L 165.496094 15.683594 C 165.597656 15.625 165.667969 15.535156 165.703125 15.421875 C 165.734375 15.257812 166.207031 14.511719 166.066406 14.40625 C 162.441406 11.433594 157.417969 10.066406 152.796875 9.367188"/><path fill="#547FDD" d="M 160.773438 71.605469 C 161.707031 71.519531 162.636719 71.527344 163.566406 71.625 C 164.5 71.722656 165.410156 71.910156 166.304688 72.1875 C 167.199219 72.464844 168.054688 72.828125 168.878906 73.273438 C 169.699219 73.71875 170.472656 74.242188 171.191406 74.839844 C 171.914062 75.4375 172.570312 76.101562 173.160156 76.828125 C 173.75 77.554688 174.265625 78.335938 174.703125 79.164062 C 175.144531 79.992188 175.496094 80.855469 175.765625 81.753906 C 176.035156 82.652344 176.21875 83.566406 176.308594 84.5 C 178.902344 81.957031 180.433594 78.207031 179.855469 74.609375 C 179.816406 74.246094 179.703125 73.910156 179.519531 73.597656 C 179.132812 73.023438 178.402344 72.8125 177.734375 72.625 C 174.183594 71.644531 170.769531 70.308594 167.492188 68.625 C 166.515625 68.125 165.421875 67.578125 164.375 67.898438 C 163.328125 68.21875 162.480469 69.457031 161.335938 69.410156 L 161.292969 70.699219"/><path fill="#547FDD" d="M 197.246094 82.324219 C 197.167969 82.242188 197.121094 82.480469 197.246094 82.480469 C 197.367188 82.480469 197.414062 82.351562 197.449219 82.246094 C 197.996094 80.464844 198.855469 78.851562 200.03125 77.402344 C 201.203125 75.957031 202.605469 74.785156 204.238281 73.886719 C 205.871094 73.007812 207.601562 72.425781 209.433594 72.140625 C 211.265625 71.859375 213.089844 71.890625 214.910156 72.238281 C 214.277344 71.085938 213.597656 69.882812 212.488281 69.179688 C 210.699219 68.050781 208.367188 68.527344 206.359375 69.207031 C 203.824219 70.070312 201.355469 71.191406 198.710938 71.621094 C 197.699219 71.785156 196.628906 71.863281 195.773438 72.429688 C 194.523438 73.257812 194.082031 74.957031 194.324219 76.429688 C 194.5625 77.898438 195.367188 79.234375 196.136719 80.515625"/><path fill="#FF1A6C" d="M 163.890625 49.671875 C 165.050781 50.03125 166.238281 50.199219 167.449219 50.167969 C 168.664062 50.140625 169.839844 49.914062 170.980469 49.496094 C 171.429688 49.328125 171.953125 48.957031 171.816406 48.496094 C 171.75 48.328125 171.644531 48.191406 171.496094 48.089844 C 169.996094 46.835938 167.871094 46.660156 165.929688 46.828125 C 165.308594 46.839844 164.722656 46.992188 164.171875 47.285156 C 163.894531 47.4375 163.6875 47.652344 163.539062 47.929688 C 163.394531 48.207031 163.339844 48.503906 163.371094 48.816406 C 163.488281 49.292969 163.769531 49.636719 164.214844 49.84375 C 164.636719 50.039062 165.082031 50.148438 165.546875 50.175781 C 167.039062 50.332031 168.519531 50.261719 169.992188 49.96875 C 170.425781 49.90625 170.824219 49.757812 171.1875 49.519531 C 171.371094 49.398438 171.507812 49.234375 171.597656 49.035156 C 171.6875 48.832031 171.71875 48.625 171.691406 48.40625 C 171.550781 47.96875 171.269531 47.664062 170.84375 47.488281 C 169.0625 46.550781 166.910156 46.84375 164.925781 47.167969 C 164.421875 47.25 163.839844 47.410156 163.675781 47.894531 C 163.648438 48.015625 163.652344 48.128906 163.6875 48.246094 C 163.71875 48.363281 163.777344 48.464844 163.859375 48.550781 C 163.945312 48.636719 164.042969 48.699219 164.15625 48.738281 C 164.269531 48.777344 164.386719 48.785156 164.503906 48.765625"/><path fill="#FF1A6C" d="M 210.566406 49.671875 C 209.40625 50.03125 208.222656 50.199219 207.007812 50.167969 C 205.796875 50.140625 204.617188 49.914062 203.480469 49.496094 C 203.03125 49.328125 202.5 48.957031 202.636719 48.496094 C 202.707031 48.328125 202.8125 48.191406 202.960938 48.089844 C 204.460938 46.835938 206.585938 46.660156 208.527344 46.828125 C 209.152344 46.839844 209.738281 46.992188 210.285156 47.285156 C 210.5625 47.4375 210.773438 47.652344 210.917969 47.929688 C 211.0625 48.207031 211.117188 48.503906 211.085938 48.816406 C 210.96875 49.296875 210.6875 49.636719 210.238281 49.84375 C 209.816406 50.039062 209.375 50.148438 208.910156 50.175781 C 207.414062 50.332031 205.929688 50.265625 204.453125 49.96875 C 204.023438 49.90625 203.625 49.757812 203.257812 49.519531 C 203.078125 49.398438 202.941406 49.234375 202.851562 49.035156 C 202.761719 48.832031 202.730469 48.625 202.757812 48.40625 C 202.898438 47.96875 203.179688 47.664062 203.601562 47.488281 C 205.386719 46.550781 207.535156 46.84375 209.527344 47.167969 C 210.03125 47.25 210.613281 47.410156 210.777344 47.894531 C 210.800781 48.015625 210.796875 48.132812 210.765625 48.246094 C 210.730469 48.363281 210.671875 48.464844 210.589844 48.554688 C 210.507812 48.640625 210.40625 48.703125 210.292969 48.738281 C 210.179688 48.777344 210.0625 48.785156 209.941406 48.765625"/><path fill="#233356" d="M 166.910156 41.503906 C 167.488281 40.078125 169.929688 39.859375 171.234375 39.898438 C 172.875 39.945312 174.179688 40.496094 175.21875 41.816406 C 176.628906 43.632812 179.148438 41.085938 177.757812 39.269531 C 174.398438 34.90625 165.652344 35.15625 163.480469 40.546875 C 162.589844 42.691406 166.054688 43.625 166.910156 41.503906 Z M 166.910156 41.503906"/><path fill="#233356" d="M 174.109375 59.605469 C 173.230469 60.191406 177.625 64.1875 179.761719 64.171875 C 182.800781 64.144531 185.84375 62.832031 187.46875 60.441406 C 188.917969 62.589844 191.535156 63.867188 194.253906 64.125 C 196.691406 64.351562 201.796875 60.511719 201.140625 59.878906 C 200.976562 59.699219 200.785156 59.558594 200.566406 59.453125 C 200.347656 59.351562 200.117188 59.289062 199.875 59.273438 C 199.632812 59.253906 199.394531 59.285156 199.164062 59.355469 C 198.933594 59.429688 198.722656 59.542969 198.535156 59.695312 C 195.742188 61.964844 189.769531 60.246094 189.835938 56.285156 C 190.765625 55.84375 191.660156 55.339844 192.519531 54.765625 C 194.449219 53.515625 192.65625 50.402344 190.707031 51.660156 C 190.019531 52.09375 189.300781 52.472656 188.554688 52.796875 C 188.242188 52.90625 187.933594 53.039062 187.636719 53.1875 C 187.570312 53.230469 187.503906 53.269531 187.4375 53.300781 C 186.222656 52.925781 185.0625 52.425781 183.953125 51.804688 C 181.988281 50.578125 180.1875 53.6875 182.140625 54.90625 C 183.0625 55.484375 184.027344 55.976562 185.039062 56.378906 C 185.003906 60.257812 179.109375 61.945312 176.339844 59.695312 C 176.019531 59.4375 175.652344 59.296875 175.242188 59.28125 C 174.828125 59.265625 174.453125 59.371094 174.109375 59.605469 Z M 187.390625 53.328125 C 187.1875 53.40625 187.191406 53.328125 187.390625 53.328125 Z M 187.390625 53.328125"/><path fill="#233356" d="M 173.683594 126.332031 C 175.988281 126.445312 173.417969 122.71875 173.285156 122.714844 C 173.320312 118.785156 173.152344 114.652344 171.035156 111.214844 C 169.132812 108.125 165.808594 106.03125 162.109375 106.488281 C 158.324219 106.964844 156.277344 110.125 154.957031 113.398438 C 154.207031 115.324219 153.773438 117.324219 153.648438 119.390625 C 153.523438 121.457031 153.71875 123.492188 154.230469 125.496094 C 153.832031 125.71875 152.914062 130.570312 154.859375 129.3125 C 160.488281 125.691406 167.25 126 173.683594 126.332031 Z M 173.683594 126.332031"/><path fill="#233356" d="M 172.316406 149.308594 C 171.820312 149.308594 171.398438 149.484375 171.046875 149.835938 C 170.703125 150.1875 170.53125 150.609375 170.523438 151.101562 L 170.523438 151.238281 C 170.527344 151.730469 170.703125 152.15625 171.046875 152.507812 C 171.214844 152.675781 171.410156 152.804688 171.628906 152.898438 C 171.847656 152.988281 172.078125 153.035156 172.316406 153.035156 C 172.554688 153.035156 172.785156 152.988281 173.003906 152.898438 C 173.222656 152.804688 173.417969 152.675781 173.585938 152.507812 C 173.929688 152.152344 174.105469 151.730469 174.109375 151.238281 L 174.109375 151.101562 C 174.105469 150.609375 173.929688 150.1875 173.585938 149.835938 C 173.234375 149.484375 172.8125 149.308594 172.316406 149.308594 Z M 172.316406 149.308594"/><path fill="#233356" d="M 178.554688 151.167969 C 180.859375 151.167969 180.863281 147.578125 178.554688 147.578125 C 176.246094 147.578125 176.242188 151.167969 178.554688 151.167969 Z M 178.554688 151.167969"/><path fill="#233356" d="M 173.773438 147.042969 C 176.082031 147.042969 176.085938 143.449219 173.773438 143.449219 C 171.460938 143.449219 171.464844 147.042969 173.773438 147.042969 Z M 173.773438 147.042969"/><path fill="#233356" d="M 199.738281 41.816406 C 200.203125 41.191406 200.789062 40.707031 201.488281 40.371094 C 202.1875 40.03125 202.925781 39.875 203.703125 39.898438 C 205.046875 39.875 207.4375 40.046875 208.023438 41.503906 C 208.878906 43.621094 212.347656 42.695312 211.484375 40.550781 C 209.308594 35.15625 200.5625 34.929688 197.203125 39.273438 C 195.804688 41.082031 198.324219 43.644531 199.738281 41.816406 Z M 199.738281 41.816406"/><g clip-path="url(#a)"><path fill="#233356" d="M 245.921875 92.460938 C 246.867188 86.0625 247.566406 79.164062 246.316406 72.761719 C 245.757812 69.90625 244.617188 66.558594 242.527344 64.433594 C 240.351562 62.25 236.804688 62.777344 234.054688 63.269531 C 227.980469 64.359375 222.59375 67.816406 218.019531 71.863281 C 216.933594 70.101562 215.523438 68.667969 213.777344 67.5625 C 217.308594 65.070312 220.046875 61.894531 221.992188 58.03125 C 222.910156 56.175781 223.644531 54.25 224.195312 52.253906 C 224.742188 50.257812 225.09375 48.226562 225.253906 46.164062 C 225.410156 44.097656 225.367188 42.039062 225.128906 39.980469 C 224.890625 37.925781 224.457031 35.910156 223.828125 33.9375 C 226.390625 30.289062 228.054688 26.269531 228.828125 21.875 C 229.496094 17.976562 229.957031 12.714844 228.042969 9.078125 C 225.96875 5.132812 220.671875 6.3125 217.144531 7.210938 C 212.886719 8.332031 209.101562 10.347656 205.789062 13.257812 L 205.679688 13.210938 C 202.617188 11.960938 199.457031 11.027344 196.207031 10.414062 C 193.398438 9.859375 190.339844 9.140625 187.46875 9.140625 C 184.597656 9.140625 181.53125 9.867188 178.730469 10.414062 C 175.480469 11.03125 172.328125 11.964844 169.269531 13.21875 L 169.15625 13.265625 C 165.929688 10.425781 162.246094 8.4375 158.105469 7.296875 C 154.511719 6.3125 149.046875 5.058594 146.894531 9.066406 C 145.007812 12.59375 145.445312 17.746094 146.058594 21.542969 C 146.796875 26.0625 148.480469 30.191406 151.109375 33.9375 C 150.007812 37.375 149.496094 40.898438 149.585938 44.507812 C 149.671875 48.121094 150.351562 51.617188 151.617188 54.996094 C 153.207031 59.140625 155.632812 63.074219 158.964844 66.027344 C 159.621094 66.605469 160.304688 67.144531 161.019531 67.644531 C 159.347656 68.742188 157.988281 70.144531 156.945312 71.851562 C 152.367188 67.804688 146.980469 64.335938 140.902344 63.253906 C 138.144531 62.761719 134.597656 62.21875 132.429688 64.417969 C 130.332031 66.546875 129.199219 69.886719 128.640625 72.75 C 127.367188 79.152344 128.066406 86.046875 129.03125 92.460938 C 130.046875 99.328125 132.121094 106.0625 135.964844 111.886719 C 136.042969 112.003906 136.132812 112.113281 136.230469 112.210938 C 131.59375 125.378906 131.15625 139.890625 135.328125 153.289062 C 136.453125 156.894531 137.8125 160.632812 139.933594 163.785156 C 141.984375 166.828125 144.699219 169.277344 147.648438 171.421875 C 154 176.082031 160.921875 179.613281 168.417969 182.011719 C 173.953125 183.742188 179.511719 184.355469 185.269531 184.417969 C 190.609375 184.480469 195.882812 184.515625 201.132812 183.433594 C 208.675781 181.882812 215.878906 178.675781 222.433594 174.664062 C 228.988281 170.648438 234.546875 166.082031 237.597656 158.863281 C 243.824219 144.082031 244.011719 127.242188 238.71875 112.199219 C 238.820312 112.101562 238.914062 111.992188 238.992188 111.875 C 242.851562 106.046875 244.910156 99.3125 245.921875 92.460938 Z M 216.3125 78.285156 C 216.296875 78.472656 216.273438 78.65625 216.242188 78.839844 C 215.464844 77.90625 212.015625 75.402344 211.375 76.046875 C 210.648438 76.773438 213.375 80.980469 214.375 82.175781 C 213.113281 83.265625 211.667969 83.996094 210.042969 84.375 C 209.53125 82.894531 209.023438 81.414062 208.515625 79.9375 C 207.765625 77.757812 205.957031 83.503906 206.410156 84.8125 C 203.824219 84.851562 201.160156 84.3125 199.011719 82.996094 C 196.246094 81.289062 194.230469 77.679688 195.640625 74.453125 C 195.675781 74.371094 195.703125 74.285156 195.730469 74.195312 C 196.753906 74.054688 197.773438 73.886719 198.769531 73.691406 C 202.789062 72.941406 206.617188 71.628906 210.25 69.75 C 210.410156 69.875 210.589844 69.96875 210.78125 70.035156 C 213.78125 71.078125 216.503906 75.066406 216.3125 78.285156 Z M 217.160156 10.953125 C 218.65625 10.496094 220.183594 10.199219 221.742188 10.050781 C 218.375 11.996094 215.441406 14.222656 212.996094 17.429688 C 211.832031 16.535156 210.609375 15.726562 209.328125 15.003906 C 211.683594 13.160156 214.292969 11.804688 217.160156 10.9375 Z M 157.777344 10.953125 C 160.640625 11.8125 163.253906 13.164062 165.609375 15.003906 C 164.328125 15.726562 163.105469 16.535156 161.941406 17.429688 C 159.480469 14.210938 156.582031 11.980469 153.195312 10.035156 C 154.753906 10.183594 156.28125 10.484375 157.777344 10.9375 Z M 159.226562 61.117188 C 158.394531 60.121094 157.648438 59.066406 156.984375 57.953125 C 157.765625 57.558594 160.910156 55.6875 160.636719 54.683594 C 160.394531 53.804688 159.347656 53.097656 158.433594 53.429688 C 157.382812 53.808594 156.359375 54.246094 155.359375 54.746094 C 154.859375 53.570312 154.441406 52.363281 154.113281 51.132812 C 155.726562 50.707031 160.234375 45.792969 158 46.382812 L 154.011719 47.4375 C 153.800781 47.375 153.582031 47.347656 153.363281 47.363281 C 152.882812 43.601562 153.128906 39.890625 154.109375 36.230469 C 154.550781 34.582031 155.949219 29.597656 155.292969 29.097656 C 154.507812 28.507812 153.339844 28.476562 152.792969 29.613281 C 152.769531 29.667969 152.75 29.71875 152.722656 29.769531 C 149.820312 24.582031 148.445312 18.390625 149.542969 12.492188 C 149.5625 12.375 149.585938 12.261719 149.605469 12.15625 C 153.359375 14.117188 156.691406 16.257812 159.253906 19.789062 C 158.164062 20.878906 158.019531 27.101562 159.328125 25.210938 C 162.230469 21 166.636719 18.050781 171.355469 16.21875 C 174.066406 15.199219 176.847656 14.421875 179.691406 13.890625 C 182.199219 13.390625 184.921875 12.742188 187.480469 12.742188 C 190.035156 12.742188 192.761719 13.390625 195.265625 13.890625 C 198.113281 14.421875 200.890625 15.199219 203.601562 16.21875 C 208.316406 18.054688 212.71875 21 215.632812 25.210938 C 216.9375 27.097656 216.808594 20.886719 215.707031 19.789062 C 218.269531 16.261719 221.601562 14.125 225.351562 12.15625 C 225.378906 12.261719 225.398438 12.375 225.421875 12.492188 C 226.507812 18.386719 225.140625 24.582031 222.214844 29.769531 C 222.195312 29.722656 222.171875 29.671875 222.148438 29.621094 C 222.066406 29.429688 221.953125 29.261719 221.804688 29.117188 C 221.65625 28.972656 221.484375 28.863281 221.289062 28.789062 C 221.097656 28.71875 220.894531 28.6875 220.6875 28.695312 C 220.480469 28.707031 220.285156 28.757812 220.097656 28.847656 C 219.1875 29.210938 220.539062 35.074219 220.996094 36.976562 C 221.8125 40.414062 221.996094 43.882812 221.542969 47.386719 C 221.324219 47.375 221.113281 47.402344 220.90625 47.464844 L 216.921875 46.410156 C 214.6875 45.816406 219.1875 50.726562 220.796875 51.15625 C 220.535156 52.144531 220.222656 53.113281 219.855469 54.066406 C 219.761719 54.304688 219.664062 54.546875 219.566406 54.792969 C 218.566406 54.292969 217.539062 53.851562 216.484375 53.472656 C 215.570312 53.140625 214.519531 53.835938 214.277344 54.726562 C 214.007812 55.726562 217.175781 57.59375 217.949219 57.996094 C 217.289062 59.113281 216.546875 60.167969 215.71875 61.164062 C 215.019531 60.800781 211.691406 59.742188 211.277344 60.535156 C 210.777344 61.480469 211.113281 62.386719 211.917969 62.992188 C 212.28125 63.285156 212.699219 63.546875 213.101562 63.800781 L 212.921875 63.957031 C 209.46875 66.792969 204.917969 68.457031 200.648438 69.585938 C 196.511719 70.632812 192.316406 71.101562 188.050781 71 C 184.480469 70.960938 181 70.96875 177.472656 70.304688 C 173.03125 69.519531 168.835938 68.042969 164.878906 65.875 C 163.808594 65.257812 162.804688 64.550781 161.867188 63.746094 C 162.257812 63.496094 162.640625 63.238281 163.011719 62.960938 C 163.382812 62.679688 163.902344 60.882812 163.65625 60.503906 C 163.183594 59.746094 159.925781 60.734375 159.242188 61.109375 Z M 164.15625 70.007812 C 164.320312 69.949219 164.472656 69.871094 164.613281 69.777344 C 166.96875 70.9375 169.40625 71.886719 171.929688 72.617188 C 174.316406 73.320312 176.746094 73.84375 179.210938 74.179688 C 179.238281 74.265625 179.265625 74.347656 179.300781 74.429688 C 180.707031 77.652344 178.6875 81.261719 175.921875 82.972656 C 173.777344 84.296875 171.113281 84.835938 168.527344 84.789062 C 168.976562 83.480469 169.429688 82.171875 169.878906 80.867188 C 170.632812 78.683594 165.402344 82.871094 164.894531 84.347656 C 163.273438 83.976562 161.832031 83.246094 160.570312 82.160156 C 161.570312 80.964844 164.292969 76.761719 163.566406 76.03125 C 162.925781 75.378906 159.480469 77.894531 158.695312 78.824219 C 158.664062 78.640625 158.640625 78.457031 158.628906 78.269531 C 158.433594 75.066406 161.15625 71.078125 164.15625 70.007812 Z M 236.84375 118.027344 C 238.332031 123.601562 239.027344 129.273438 238.929688 135.046875 C 238.832031 140.816406 237.949219 146.460938 236.273438 151.984375 C 235.1875 155.535156 233.878906 159.167969 231.738281 162.226562 C 229.742188 165.082031 226.972656 167.316406 224.125 169.269531 C 218.199219 173.316406 211.75 176.6875 204.867188 178.761719 C 199.71875 180.3125 194.699219 180.804688 189.367188 180.828125 C 184.691406 180.847656 179.988281 180.917969 175.371094 180.042969 C 168.339844 178.710938 161.691406 175.898438 155.542969 172.269531 C 149.160156 168.503906 143.472656 164.273438 140.542969 157.226562 C 135.292969 144.632812 134.625 130.21875 138.367188 117.109375 C 139.046875 114.710938 140.78125 108.097656 140.042969 107.625 C 139.308594 107.152344 138.339844 107.164062 137.84375 108.078125 C 132.648438 98.992188 131.070312 87.425781 131.683594 77.152344 C 131.84375 74.441406 132.320312 71.675781 133.527344 69.226562 C 134.3125 67.632812 134.976562 66.464844 136.890625 66.457031 C 138.351562 66.457031 139.789062 66.632812 141.203125 66.984375 C 146.640625 68.28125 151.355469 71.558594 155.429688 75.316406 C 155.21875 76.078125 155.097656 76.851562 155.066406 77.640625 C 155.027344 78.832031 155.21875 79.984375 155.640625 81.101562 C 156.058594 82.214844 156.675781 83.207031 157.492188 84.074219 C 156.695312 84.476562 155.9375 84.945312 155.222656 85.484375 C 152.589844 82.808594 149.777344 80.339844 146.792969 78.066406 C 145.65625 77.203125 144.183594 75.613281 142.625 75.726562 C 140.988281 75.851562 140.613281 77.339844 140.414062 78.707031 C 139.835938 82.675781 139.734375 86.660156 140.109375 90.652344 C 140.484375 94.648438 141.324219 98.542969 142.628906 102.335938 C 143.375 104.515625 143.910156 93.722656 143.597656 89.75 C 143.445312 87.804688 143.410156 85.859375 143.492188 83.914062 C 143.535156 82.941406 143.605469 81.96875 143.707031 81.003906 C 143.730469 80.769531 143.765625 80.535156 143.796875 80.300781 C 144.097656 80.519531 144.398438 80.734375 144.695312 80.960938 C 145.730469 81.742188 146.738281 82.554688 147.722656 83.394531 C 149.398438 84.820312 150.984375 86.324219 152.535156 87.890625 C 151.972656 88.480469 151.449219 89.101562 150.945312 89.730469 C 149.527344 91.523438 157.726562 87.507812 160.78125 86.632812 C 161.808594 87.183594 162.890625 87.589844 164.023438 87.855469 C 168.964844 89.015625 174.867188 88.410156 178.972656 85.226562 C 182.269531 82.660156 183.867188 78.554688 183.027344 74.597656 C 185.996094 74.816406 188.960938 74.816406 191.925781 74.597656 C 191.734375 75.566406 191.675781 76.542969 191.75 77.53125 C 191.828125 78.515625 192.035156 79.46875 192.378906 80.398438 C 192.71875 81.324219 193.179688 82.1875 193.761719 82.984375 C 194.34375 83.78125 195.023438 84.484375 195.796875 85.09375 C 199.902344 88.40625 205.925781 89.046875 210.933594 87.867188 C 212.066406 87.601562 213.144531 87.191406 214.171875 86.644531 C 217.230469 87.523438 225.410156 91.535156 224.007812 89.738281 C 223.511719 89.109375 222.976562 88.492188 222.414062 87.898438 C 223.960938 86.335938 225.558594 84.832031 227.230469 83.40625 C 228.09375 82.679688 228.96875 81.96875 229.863281 81.273438 C 230.289062 80.945312 230.722656 80.625 231.15625 80.308594 C 231.183594 80.546875 231.21875 80.777344 231.246094 81.015625 C 231.347656 81.980469 231.417969 82.957031 231.460938 83.921875 C 231.542969 85.871094 231.507812 87.816406 231.359375 89.761719 C 231.046875 93.734375 231.574219 104.523438 232.324219 102.347656 C 233.628906 98.554688 234.46875 94.660156 234.84375 90.664062 C 235.21875 86.671875 235.113281 82.6875 234.535156 78.71875 C 234.351562 77.433594 234.050781 76.035156 232.566406 75.769531 C 231 75.492188 229.585938 77 228.449219 77.855469 C 225.359375 80.1875 222.460938 82.730469 219.746094 85.488281 C 219.03125 84.957031 218.277344 84.488281 217.480469 84.078125 C 218.257812 83.25 218.851562 82.308594 219.269531 81.25 C 219.6875 80.195312 219.898438 79.097656 219.902344 77.960938 C 219.894531 77.066406 219.773438 76.183594 219.542969 75.320312 C 223.601562 71.558594 228.316406 68.296875 233.757812 66.992188 C 235.066406 66.667969 236.398438 66.492188 237.746094 66.464844 C 239.742188 66.4375 240.382812 67.230469 241.285156 68.949219 C 242.601562 71.460938 243.117188 74.34375 243.28125 77.160156 C 243.875 87.441406 242.320312 98.996094 237.117188 108.085938 C 236.570312 107.082031 235.457031 107.167969 234.707031 107.78125 C 234.082031 108.28125 236.117188 115.320312 236.84375 118.027344 Z M 236.84375 118.027344"/></g><path fill="#233356" d="M 220.101562 113.722656 C 218.808594 110.320312 216.722656 106.984375 212.828125 106.492188 C 209.226562 106.042969 206.003906 108.007812 204.0625 110.964844 C 201.789062 114.429688 201.617188 118.691406 201.652344 122.714844 C 201.519531 122.714844 198.945312 126.445312 201.253906 126.332031 C 207.6875 126 214.449219 125.691406 220.085938 129.332031 C 222.03125 130.585938 221.109375 125.742188 220.710938 125.519531 C 221.210938 123.570312 221.410156 121.585938 221.304688 119.574219 C 221.203125 117.5625 220.800781 115.613281 220.101562 113.722656 Z M 220.101562 113.722656"/><path fill="#233356" d="M 210.417969 150.539062 C 208.886719 152.457031 207.425781 154.695312 205.214844 155.875 C 203.003906 157.058594 200.402344 157.269531 198 156.816406 C 193.15625 155.910156 188.722656 151.796875 189.460938 146.539062 C 192.386719 144.90625 196.273438 142.625 196.214844 139.046875 C 196.152344 135.117188 190.621094 133.800781 187.46875 134.5 C 184.269531 133.789062 178.847656 135.121094 178.722656 139.046875 C 178.605469 142.601562 182.566406 144.917969 185.476562 146.539062 C 186.199219 151.8125 181.777344 155.890625 176.9375 156.816406 C 175.71875 157.070312 174.488281 157.117188 173.25 156.957031 C 172.011719 156.796875 170.835938 156.433594 169.722656 155.875 C 167.515625 154.699219 166.050781 152.453125 164.519531 150.539062 C 163.070312 148.722656 160.558594 151.292969 161.980469 153.085938 C 164.15625 155.785156 166.144531 158.410156 169.472656 159.691406 C 171.421875 160.425781 173.4375 160.726562 175.515625 160.597656 C 176.179688 164.808594 177.398438 168.851562 179.175781 172.726562 C 180.695312 176.015625 183.714844 180.804688 187.960938 180.359375 C 191.664062 179.960938 194.164062 176.105469 195.605469 173.0625 C 197.46875 169.09375 198.738281 164.941406 199.414062 160.609375 C 201.492188 160.742188 203.507812 160.441406 205.460938 159.710938 C 208.789062 158.429688 210.792969 155.804688 212.949219 153.101562 C 214.378906 151.296875 211.859375 148.738281 210.417969 150.539062 Z M 193.105469 169.929688 C 192.210938 172.027344 190.472656 176.445312 187.753906 176.757812 C 186.339844 176.917969 184.777344 175.175781 184.054688 174.160156 C 183.160156 172.832031 182.421875 171.417969 181.832031 169.929688 C 180.484375 166.742188 179.542969 163.4375 179.015625 160.011719 L 179.128906 159.984375 C 180.882812 159.496094 182.480469 158.695312 183.921875 157.582031 C 185.363281 156.46875 186.546875 155.125 187.464844 153.550781 C 188.382812 155.125 189.566406 156.46875 191.007812 157.582031 C 192.449219 158.695312 194.046875 159.496094 195.800781 159.984375 L 195.910156 160.011719 C 195.390625 163.4375 194.453125 166.742188 193.105469 169.929688 Z M 193.105469 169.929688"/><path fill="#233356" d="M 200.828125 151.101562 L 200.828125 151.238281 C 200.835938 151.730469 201.011719 152.152344 201.355469 152.507812 C 201.523438 152.675781 201.71875 152.804688 201.9375 152.898438 C 202.15625 152.988281 202.386719 153.035156 202.625 153.035156 C 202.863281 153.035156 203.089844 152.988281 203.3125 152.898438 C 203.53125 152.804688 203.722656 152.675781 203.894531 152.507812 C 204.234375 152.152344 204.410156 151.730469 204.417969 151.238281 L 204.417969 151.101562 C 204.414062 150.609375 204.238281 150.1875 203.894531 149.835938 C 203.722656 149.664062 203.53125 149.535156 203.3125 149.445312 C 203.089844 149.351562 202.863281 149.304688 202.625 149.304688 C 202.386719 149.304688 202.15625 149.351562 201.9375 149.445312 C 201.71875 149.535156 201.523438 149.664062 201.355469 149.835938 C 201.011719 150.1875 200.835938 150.609375 200.828125 151.101562 Z M 200.828125 151.101562"/><path fill="#233356" d="M 196.386719 151.167969 C 198.691406 151.167969 198.695312 147.578125 196.386719 147.578125 C 194.078125 147.578125 194.074219 151.167969 196.386719 151.167969 Z M 196.386719 151.167969"/><path fill="#233356" d="M 201.167969 147.042969 C 203.472656 147.042969 203.476562 143.449219 201.167969 143.449219 C 198.859375 143.449219 198.855469 147.042969 201.167969 147.042969 Z M 201.167969 147.042969"/><path fill="#FFF" d="M 163.925781 118.925781 C 163.675781 118.742188 163.347656 119.105469 163.382812 119.414062 C 163.414062 119.632812 163.519531 119.8125 163.699219 119.945312 C 163.878906 120.078125 164.078125 120.128906 164.296875 120.097656 C 164.402344 120.070312 164.496094 120.023438 164.578125 119.953125 C 164.664062 119.886719 164.730469 119.808594 164.777344 119.710938 C 164.828125 119.617188 164.855469 119.515625 164.859375 119.40625 C 164.867188 119.300781 164.851562 119.195312 164.8125 119.097656 C 164.765625 119 164.695312 118.917969 164.609375 118.855469 C 164.523438 118.789062 164.425781 118.746094 164.320312 118.726562 C 164.214844 118.703125 164.109375 118.707031 164.003906 118.738281 C 163.898438 118.765625 163.808594 118.816406 163.726562 118.886719 C 163.65625 118.964844 163.605469 119.054688 163.578125 119.160156 C 163.550781 119.261719 163.546875 119.363281 163.570312 119.46875 C 163.589844 119.574219 163.636719 119.667969 163.703125 119.75 C 163.769531 119.832031 163.851562 119.894531 163.949219 119.9375"/><path fill="#FFF" d="M 160.753906 112.820312 C 160.398438 112.617188 160.015625 112.53125 159.605469 112.5625 C 159.199219 112.589844 158.832031 112.730469 158.507812 112.980469 L 158.480469 112.980469 C 157 113.4375 156.792969 115.796875 157.449219 116.976562 C 158.304688 118.511719 160.417969 118.390625 161.4375 117.097656 C 162.460938 115.804688 162.300781 113.644531 160.753906 112.820312 Z M 160.753906 112.820312"/><path fill="#FFF" d="M 163.539062 118.269531 L 163.4375 118.34375 C 163.1875 118.453125 163.007812 118.632812 162.894531 118.882812 C 162.792969 119.125 162.765625 119.375 162.820312 119.632812 C 162.875 119.886719 163 120.105469 163.191406 120.285156 C 163.367188 120.460938 163.574219 120.578125 163.8125 120.640625 C 164.054688 120.699219 164.292969 120.691406 164.527344 120.617188 C 164.765625 120.542969 164.964844 120.414062 165.128906 120.230469 C 165.292969 120.042969 165.394531 119.828125 165.441406 119.582031 C 165.476562 119.339844 165.445312 119.105469 165.347656 118.878906 C 165.25 118.65625 165.101562 118.472656 164.898438 118.332031 C 164.699219 118.191406 164.472656 118.117188 164.230469 118.105469 C 163.984375 118.09375 163.753906 118.152344 163.539062 118.269531 Z M 164.289062 119.363281 Z M 164.234375 119.398438 L 164.265625 119.375 C 164.265625 119.375 164.265625 119.375 164.265625 119.394531 Z M 164.234375 119.398438"/><path fill="#FFF" d="M 211.957031 118.925781 C 211.710938 118.742188 211.382812 119.105469 211.417969 119.414062 C 211.449219 119.632812 211.554688 119.8125 211.734375 119.945312 C 211.914062 120.078125 212.113281 120.128906 212.335938 120.097656 C 212.4375 120.070312 212.53125 120.019531 212.613281 119.953125 C 212.699219 119.886719 212.765625 119.804688 212.8125 119.710938 C 212.863281 119.617188 212.890625 119.515625 212.894531 119.40625 C 212.902344 119.300781 212.886719 119.195312 212.847656 119.097656 C 212.800781 119 212.734375 118.917969 212.644531 118.855469 C 212.558594 118.789062 212.464844 118.746094 212.355469 118.726562 C 212.25 118.703125 212.144531 118.707031 212.042969 118.738281 C 211.9375 118.765625 211.84375 118.816406 211.761719 118.886719 C 211.691406 118.964844 211.640625 119.054688 211.613281 119.160156 C 211.585938 119.261719 211.582031 119.363281 211.605469 119.46875 C 211.628906 119.574219 211.671875 119.667969 211.738281 119.75 C 211.808594 119.832031 211.890625 119.894531 211.988281 119.9375"/><path fill="#FFF" d="M 208.777344 112.820312 C 208.421875 112.617188 208.039062 112.53125 207.632812 112.5625 C 207.222656 112.589844 206.855469 112.730469 206.53125 112.980469 L 206.507812 112.980469 C 205.027344 113.4375 204.8125 115.796875 205.476562 116.976562 C 206.332031 118.511719 208.441406 118.390625 209.464844 117.097656 C 210.484375 115.804688 210.335938 113.644531 208.777344 112.820312 Z M 208.777344 112.820312"/><path fill="#FFF" d="M 211.578125 118.269531 C 211.539062 118.292969 211.503906 118.316406 211.472656 118.34375 C 211.222656 118.457031 211.042969 118.632812 210.929688 118.882812 C 210.824219 119.125 210.800781 119.375 210.855469 119.632812 C 210.910156 119.890625 211.035156 120.105469 211.230469 120.285156 C 211.402344 120.460938 211.609375 120.578125 211.851562 120.636719 C 212.089844 120.695312 212.328125 120.6875 212.5625 120.613281 C 212.800781 120.539062 213 120.410156 213.164062 120.226562 C 213.328125 120.042969 213.433594 119.828125 213.476562 119.582031 C 213.511719 119.339844 213.484375 119.105469 213.386719 118.878906 C 213.289062 118.65625 213.136719 118.472656 212.9375 118.332031 C 212.734375 118.191406 212.511719 118.117188 212.265625 118.105469 C 212.019531 118.09375 211.789062 118.152344 211.578125 118.269531 Z M 212.320312 119.363281 Z M 212.269531 119.398438 L 212.296875 119.375 C 212.296875 119.382812 212.296875 119.386719 212.296875 119.394531 Z M 212.269531 119.398438"/><g fill="#233356"><g><g><path d="M 0.9375 0 C 0.875 0 0.816406 -0.0195312 0.765625 -0.0625 C 0.722656 -0.113281 0.703125 -0.171875 0.703125 -0.234375 L 0.703125 -6.453125 C 0.703125 -6.523438 0.722656 -6.582031 0.765625 -6.625 C 0.816406 -6.664062 0.875 -6.6875 0.9375 -6.6875 L 3.5625 -6.6875 C 4.070312 -6.6875 4.519531 -6.609375 4.90625 -6.453125 C 5.289062 -6.296875 5.585938 -6.054688 5.796875 -5.734375 C 6.003906 -5.410156 6.109375 -5.003906 6.109375 -4.515625 C 6.109375 -4.046875 6.003906 -3.648438 5.796875 -3.328125 C 5.585938 -3.015625 5.289062 -2.78125 4.90625 -2.625 C 4.519531 -2.476562 4.070312 -2.40625 3.5625 -2.40625 L 2.28125 -2.40625 L 2.28125 -0.234375 C 2.28125 -0.171875 2.253906 -0.113281 2.203125 -0.0625 C 2.160156 -0.0195312 2.101562 0 2.03125 0 Z M 2.25 -3.578125 L 3.515625 -3.578125 C 3.835938 -3.578125 4.085938 -3.65625 4.265625 -3.8125 C 4.441406 -3.976562 4.53125 -4.21875 4.53125 -4.53125 C 4.53125 -4.820312 4.445312 -5.054688 4.28125 -5.234375 C 4.125 -5.410156 3.867188 -5.5 3.515625 -5.5 L 2.25 -5.5 Z M 2.25 -3.578125" transform="translate(70.981 236.96)"/></g></g></g><g fill="#233356"><g><g><path d="M 0.3125 0 C 0.257812 0 0.210938 -0.0195312 0.171875 -0.0625 C 0.128906 -0.101562 0.109375 -0.148438 0.109375 -0.203125 C 0.109375 -0.234375 0.113281 -0.257812 0.125 -0.28125 L 2.40625 -6.4375 C 2.414062 -6.507812 2.445312 -6.566406 2.5 -6.609375 C 2.5625 -6.660156 2.644531 -6.6875 2.75 -6.6875 L 3.984375 -6.6875 C 4.078125 -6.6875 4.148438 -6.660156 4.203125 -6.609375 C 4.265625 -6.566406 4.3125 -6.507812 4.34375 -6.4375 L 6.609375 -0.28125 C 6.617188 -0.257812 6.625 -0.234375 6.625 -0.203125 C 6.625 -0.148438 6.601562 -0.101562 6.5625 -0.0625 C 6.519531 -0.0195312 6.472656 0 6.421875 0 L 5.40625 0 C 5.320312 0 5.253906 -0.0195312 5.203125 -0.0625 C 5.160156 -0.113281 5.132812 -0.15625 5.125 -0.1875 L 4.71875 -1.265625 L 2.015625 -1.265625 L 1.609375 -0.1875 C 1.597656 -0.15625 1.570312 -0.113281 1.53125 -0.0625 C 1.488281 -0.0195312 1.414062 0 1.3125 0 Z M 2.375 -2.5 L 4.34375 -2.5 L 3.359375 -5.234375 Z M 2.375 -2.5" transform="translate(87.126 236.96)"/></g></g></g><g fill="#233356"><g><g><path d="M 0.9375 0 C 0.875 0 0.816406 -0.0195312 0.765625 -0.0625 C 0.722656 -0.113281 0.703125 -0.171875 0.703125 -0.234375 L 0.703125 -6.453125 C 0.703125 -6.523438 0.722656 -6.582031 0.765625 -6.625 C 0.816406 -6.664062 0.875 -6.6875 0.9375 -6.6875 L 2.015625 -6.6875 C 2.078125 -6.6875 2.128906 -6.664062 2.171875 -6.625 C 2.222656 -6.582031 2.25 -6.523438 2.25 -6.453125 L 2.25 -1.296875 L 5.21875 -1.296875 C 5.28125 -1.296875 5.332031 -1.269531 5.375 -1.21875 C 5.425781 -1.175781 5.453125 -1.117188 5.453125 -1.046875 L 5.453125 -0.234375 C 5.453125 -0.171875 5.425781 -0.113281 5.375 -0.0625 C 5.332031 -0.0195312 5.28125 0 5.21875 0 Z M 0.9375 0" transform="translate(103.614 236.96)"/></g></g></g><g fill="#233356"><g><g><path d="M 0.9375 0 C 0.875 0 0.816406 -0.0195312 0.765625 -0.0625 C 0.722656 -0.113281 0.703125 -0.171875 0.703125 -0.234375 L 0.703125 -6.453125 C 0.703125 -6.523438 0.722656 -6.582031 0.765625 -6.625 C 0.816406 -6.664062 0.875 -6.6875 0.9375 -6.6875 L 2.03125 -6.6875 C 2.09375 -6.6875 2.144531 -6.664062 2.1875 -6.625 C 2.238281 -6.582031 2.265625 -6.523438 2.265625 -6.453125 L 2.265625 -0.234375 C 2.265625 -0.171875 2.238281 -0.113281 2.1875 -0.0625 C 2.144531 -0.0195312 2.09375 0 2.03125 0 Z M 0.9375 0" transform="translate(118.994 236.96)"/></g></g></g><g fill="#233356"><g><g><path d="M 0.9375 0 C 0.875 0 0.816406 -0.0195312 0.765625 -0.0625 C 0.722656 -0.113281 0.703125 -0.171875 0.703125 -0.234375 L 0.703125 -6.453125 C 0.703125 -6.523438 0.722656 -6.582031 0.765625 -6.625 C 0.816406 -6.664062 0.875 -6.6875 0.9375 -6.6875 L 1.8125 -6.6875 C 1.90625 -6.6875 1.972656 -6.664062 2.015625 -6.625 C 2.066406 -6.582031 2.097656 -6.546875 2.109375 -6.515625 L 4.65625 -2.546875 L 4.65625 -6.453125 C 4.65625 -6.523438 4.675781 -6.582031 4.71875 -6.625 C 4.769531 -6.664062 4.828125 -6.6875 4.890625 -6.6875 L 5.875 -6.6875 C 5.9375 -6.6875 5.988281 -6.664062 6.03125 -6.625 C 6.082031 -6.582031 6.109375 -6.523438 6.109375 -6.453125 L 6.109375 -0.234375 C 6.109375 -0.171875 6.082031 -0.113281 6.03125 -0.0625 C 5.988281 -0.0195312 5.9375 0 5.875 0 L 4.984375 0 C 4.890625 0 4.820312 -0.0195312 4.78125 -0.0625 C 4.738281 -0.113281 4.707031 -0.148438 4.6875 -0.171875 L 2.15625 -4.03125 L 2.15625 -0.234375 C 2.15625 -0.171875 2.132812 -0.113281 2.09375 -0.0625 C 2.050781 -0.0195312 1.992188 0 1.921875 0 Z M 0.9375 0" transform="translate(131.727 236.96)"/></g></g></g><g fill="#233356"><g><g><path d="M 0.9375 0 C 0.875 0 0.816406 -0.0195312 0.765625 -0.0625 C 0.722656 -0.113281 0.703125 -0.171875 0.703125 -0.234375 L 0.703125 -6.453125 C 0.703125 -6.523438 0.722656 -6.582031 0.765625 -6.625 C 0.816406 -6.664062 0.875 -6.6875 0.9375 -6.6875 L 3.34375 -6.6875 C 3.976562 -6.6875 4.507812 -6.585938 4.9375 -6.390625 C 5.363281 -6.191406 5.691406 -5.898438 5.921875 -5.515625 C 6.148438 -5.128906 6.269531 -4.648438 6.28125 -4.078125 C 6.289062 -3.796875 6.296875 -3.550781 6.296875 -3.34375 C 6.296875 -3.132812 6.289062 -2.894531 6.28125 -2.625 C 6.257812 -2.03125 6.140625 -1.535156 5.921875 -1.140625 C 5.710938 -0.753906 5.394531 -0.46875 4.96875 -0.28125 C 4.550781 -0.09375 4.023438 0 3.390625 0 Z M 2.234375 -1.25 L 3.34375 -1.25 C 3.664062 -1.25 3.925781 -1.289062 4.125 -1.375 C 4.320312 -1.46875 4.472656 -1.617188 4.578125 -1.828125 C 4.679688 -2.035156 4.738281 -2.304688 4.75 -2.640625 C 4.75 -2.828125 4.75 -2.992188 4.75 -3.140625 C 4.757812 -3.285156 4.757812 -3.429688 4.75 -3.578125 C 4.75 -3.722656 4.75 -3.882812 4.75 -4.0625 C 4.726562 -4.539062 4.601562 -4.890625 4.375 -5.109375 C 4.144531 -5.335938 3.785156 -5.453125 3.296875 -5.453125 L 2.234375 -5.453125 Z M 2.234375 -1.25" transform="translate(148.301 236.96)"/></g></g></g><g fill="#233356"><g><g><path d="M 0.9375 0 C 0.875 0 0.816406 -0.0195312 0.765625 -0.0625 C 0.722656 -0.113281 0.703125 -0.171875 0.703125 -0.234375 L 0.703125 -6.453125 C 0.703125 -6.523438 0.722656 -6.582031 0.765625 -6.625 C 0.816406 -6.664062 0.875 -6.6875 0.9375 -6.6875 L 3.484375 -6.6875 C 4.273438 -6.6875 4.898438 -6.503906 5.359375 -6.140625 C 5.816406 -5.773438 6.046875 -5.25 6.046875 -4.5625 C 6.046875 -4.09375 5.9375 -3.703125 5.71875 -3.390625 C 5.5 -3.078125 5.195312 -2.847656 4.8125 -2.703125 L 6.171875 -0.3125 C 6.191406 -0.269531 6.203125 -0.234375 6.203125 -0.203125 C 6.203125 -0.148438 6.179688 -0.101562 6.140625 -0.0625 C 6.097656 -0.0195312 6.050781 0 6 0 L 4.9375 0 C 4.820312 0 4.734375 -0.03125 4.671875 -0.09375 C 4.617188 -0.15625 4.578125 -0.210938 4.546875 -0.265625 L 3.390625 -2.453125 L 2.234375 -2.453125 L 2.234375 -0.234375 C 2.234375 -0.171875 2.207031 -0.113281 2.15625 -0.0625 C 2.113281 -0.0195312 2.054688 0 1.984375 0 Z M 2.234375 -3.65625 L 3.46875 -3.65625 C 3.8125 -3.65625 4.066406 -3.734375 4.234375 -3.890625 C 4.398438 -4.054688 4.484375 -4.285156 4.484375 -4.578125 C 4.484375 -4.859375 4.398438 -5.082031 4.234375 -5.25 C 4.066406 -5.414062 3.8125 -5.5 3.46875 -5.5 L 2.234375 -5.5 Z M 2.234375 -3.65625" transform="translate(164.838 236.96)"/></g></g></g><g fill="#233356"><g><g><path d="M 3.359375 0.09375 C 2.785156 0.09375 2.285156 0 1.859375 -0.1875 C 1.441406 -0.382812 1.113281 -0.675781 0.875 -1.0625 C 0.644531 -1.445312 0.519531 -1.929688 0.5 -2.515625 C 0.488281 -2.785156 0.484375 -3.054688 0.484375 -3.328125 C 0.484375 -3.597656 0.488281 -3.875 0.5 -4.15625 C 0.519531 -4.726562 0.648438 -5.210938 0.890625 -5.609375 C 1.128906 -6.003906 1.457031 -6.300781 1.875 -6.5 C 2.300781 -6.695312 2.796875 -6.796875 3.359375 -6.796875 C 3.921875 -6.796875 4.414062 -6.695312 4.84375 -6.5 C 5.269531 -6.300781 5.601562 -6.003906 5.84375 -5.609375 C 6.082031 -5.210938 6.210938 -4.726562 6.234375 -4.15625 C 6.242188 -3.875 6.25 -3.597656 6.25 -3.328125 C 6.25 -3.054688 6.242188 -2.785156 6.234375 -2.515625 C 6.210938 -1.929688 6.082031 -1.445312 5.84375 -1.0625 C 5.601562 -0.675781 5.273438 -0.382812 4.859375 -0.1875 C 4.441406 0 3.941406 0.09375 3.359375 0.09375 Z M 3.359375 -1.140625 C 3.734375 -1.140625 4.039062 -1.25 4.28125 -1.46875 C 4.519531 -1.695312 4.644531 -2.0625 4.65625 -2.5625 C 4.664062 -2.84375 4.671875 -3.101562 4.671875 -3.34375 C 4.671875 -3.59375 4.664062 -3.851562 4.65625 -4.125 C 4.644531 -4.457031 4.582031 -4.726562 4.46875 -4.9375 C 4.351562 -5.15625 4.203125 -5.3125 4.015625 -5.40625 C 3.828125 -5.5 3.609375 -5.546875 3.359375 -5.546875 C 3.117188 -5.546875 2.898438 -5.5 2.703125 -5.40625 C 2.515625 -5.3125 2.363281 -5.15625 2.25 -4.9375 C 2.132812 -4.726562 2.070312 -4.457031 2.0625 -4.125 C 2.0625 -3.851562 2.0625 -3.59375 2.0625 -3.34375 C 2.0625 -3.101562 2.0625 -2.84375 2.0625 -2.5625 C 2.082031 -2.0625 2.207031 -1.695312 2.4375 -1.46875 C 2.675781 -1.25 2.984375 -1.140625 3.359375 -1.140625 Z M 3.359375 -1.140625" transform="translate(181.116 236.96)"/></g></g></g><g fill="#233356"><g><g><path d="M 0.953125 0 C 0.878906 0 0.816406 -0.0195312 0.765625 -0.0625 C 0.722656 -0.113281 0.703125 -0.171875 0.703125 -0.234375 L 0.703125 -6.453125 C 0.703125 -6.523438 0.722656 -6.582031 0.765625 -6.625 C 0.816406 -6.664062 0.878906 -6.6875 0.953125 -6.6875 L 1.84375 -6.6875 C 1.9375 -6.6875 2.003906 -6.660156 2.046875 -6.609375 C 2.097656 -6.566406 2.132812 -6.53125 2.15625 -6.5 L 3.921875 -3.265625 L 5.6875 -6.5 C 5.695312 -6.53125 5.726562 -6.566406 5.78125 -6.609375 C 5.832031 -6.660156 5.90625 -6.6875 6 -6.6875 L 6.890625 -6.6875 C 6.953125 -6.6875 7.003906 -6.664062 7.046875 -6.625 C 7.097656 -6.582031 7.125 -6.523438 7.125 -6.453125 L 7.125 -0.234375 C 7.125 -0.171875 7.097656 -0.113281 7.046875 -0.0625 C 7.003906 -0.0195312 6.953125 0 6.890625 0 L 5.90625 0 C 5.84375 0 5.789062 -0.0195312 5.75 -0.0625 C 5.707031 -0.113281 5.6875 -0.171875 5.6875 -0.234375 L 5.6875 -4.09375 L 4.46875 -1.828125 C 4.4375 -1.765625 4.394531 -1.710938 4.34375 -1.671875 C 4.300781 -1.628906 4.234375 -1.609375 4.140625 -1.609375 L 3.6875 -1.609375 C 3.601562 -1.609375 3.535156 -1.628906 3.484375 -1.671875 C 3.429688 -1.710938 3.390625 -1.765625 3.359375 -1.828125 L 2.15625 -4.09375 L 2.15625 -0.234375 C 2.15625 -0.171875 2.132812 -0.113281 2.09375 -0.0625 C 2.050781 -0.0195312 1.992188 0 1.921875 0 Z M 0.953125 0" transform="translate(197.596 236.96)"/></g></g></g><g fill="#233356"><g><g><path d="M 0.9375 0 C 0.875 0 0.816406 -0.0195312 0.765625 -0.0625 C 0.722656 -0.113281 0.703125 -0.171875 0.703125 -0.234375 L 0.703125 -6.453125 C 0.703125 -6.523438 0.722656 -6.582031 0.765625 -6.625 C 0.816406 -6.664062 0.875 -6.6875 0.9375 -6.6875 L 5.28125 -6.6875 C 5.351562 -6.6875 5.410156 -6.664062 5.453125 -6.625 C 5.492188 -6.582031 5.515625 -6.523438 5.515625 -6.453125 L 5.515625 -5.6875 C 5.515625 -5.613281 5.492188 -5.554688 5.453125 -5.515625 C 5.410156 -5.472656 5.351562 -5.453125 5.28125 -5.453125 L 2.1875 -5.453125 L 2.1875 -3.953125 L 5.0625 -3.953125 C 5.132812 -3.953125 5.191406 -3.929688 5.234375 -3.890625 C 5.285156 -3.847656 5.3125 -3.789062 5.3125 -3.71875 L 5.3125 -3.015625 C 5.3125 -2.953125 5.285156 -2.894531 5.234375 -2.84375 C 5.191406 -2.789062 5.132812 -2.765625 5.0625 -2.765625 L 2.1875 -2.765625 L 2.1875 -1.25 L 5.359375 -1.25 C 5.421875 -1.25 5.472656 -1.222656 5.515625 -1.171875 C 5.566406 -1.128906 5.59375 -1.070312 5.59375 -1 L 5.59375 -0.234375 C 5.59375 -0.171875 5.566406 -0.113281 5.515625 -0.0625 C 5.472656 -0.0195312 5.421875 0 5.359375 0 Z M 0.9375 0" transform="translate(215.184 236.96)"/></g></g></g><g fill="#233356"><g><g><path d="M 1.796875 0 C 1.691406 0 1.609375 -0.0234375 1.546875 -0.078125 C 1.492188 -0.140625 1.457031 -0.210938 1.4375 -0.296875 L 0.359375 -6.421875 C 0.347656 -6.429688 0.34375 -6.441406 0.34375 -6.453125 C 0.34375 -6.472656 0.34375 -6.488281 0.34375 -6.5 C 0.34375 -6.539062 0.359375 -6.582031 0.390625 -6.625 C 0.429688 -6.664062 0.484375 -6.6875 0.546875 -6.6875 L 1.5625 -6.6875 C 1.726562 -6.6875 1.820312 -6.625 1.84375 -6.5 L 2.546875 -2.453125 L 3.3125 -4.96875 C 3.332031 -5.019531 3.363281 -5.070312 3.40625 -5.125 C 3.457031 -5.1875 3.535156 -5.21875 3.640625 -5.21875 L 4.234375 -5.21875 C 4.335938 -5.21875 4.410156 -5.1875 4.453125 -5.125 C 4.492188 -5.070312 4.523438 -5.019531 4.546875 -4.96875 L 5.328125 -2.46875 L 6.03125 -6.5 C 6.050781 -6.625 6.144531 -6.6875 6.3125 -6.6875 L 7.328125 -6.6875 C 7.378906 -6.6875 7.425781 -6.664062 7.46875 -6.625 C 7.507812 -6.582031 7.53125 -6.539062 7.53125 -6.5 C 7.53125 -6.488281 7.53125 -6.472656 7.53125 -6.453125 C 7.53125 -6.441406 7.523438 -6.429688 7.515625 -6.421875 L 6.4375 -0.296875 C 6.425781 -0.210938 6.390625 -0.140625 6.328125 -0.078125 C 6.265625 -0.0234375 6.179688 0 6.078125 0 L 5.296875 0 C 5.191406 0 5.113281 -0.0234375 5.0625 -0.078125 C 5.007812 -0.128906 4.972656 -0.1875 4.953125 -0.25 L 3.9375 -3.21875 L 2.921875 -0.25 C 2.898438 -0.1875 2.859375 -0.128906 2.796875 -0.078125 C 2.742188 -0.0234375 2.671875 0 2.578125 0 Z M 1.796875 0" transform="translate(230.975 236.96)"/></g></g></g><g fill="#233356"><g><g><path d="M 3.359375 0.09375 C 2.785156 0.09375 2.285156 0 1.859375 -0.1875 C 1.441406 -0.382812 1.113281 -0.675781 0.875 -1.0625 C 0.644531 -1.445312 0.519531 -1.929688 0.5 -2.515625 C 0.488281 -2.785156 0.484375 -3.054688 0.484375 -3.328125 C 0.484375 -3.597656 0.488281 -3.875 0.5 -4.15625 C 0.519531 -4.726562 0.648438 -5.210938 0.890625 -5.609375 C 1.128906 -6.003906 1.457031 -6.300781 1.875 -6.5 C 2.300781 -6.695312 2.796875 -6.796875 3.359375 -6.796875 C 3.921875 -6.796875 4.414062 -6.695312 4.84375 -6.5 C 5.269531 -6.300781 5.601562 -6.003906 5.84375 -5.609375 C 6.082031 -5.210938 6.210938 -4.726562 6.234375 -4.15625 C 6.242188 -3.875 6.25 -3.597656 6.25 -3.328125 C 6.25 -3.054688 6.242188 -2.785156 6.234375 -2.515625 C 6.210938 -1.929688 6.082031 -1.445312 5.84375 -1.0625 C 5.601562 -0.675781 5.273438 -0.382812 4.859375 -0.1875 C 4.441406 0 3.941406 0.09375 3.359375 0.09375 Z M 3.359375 -1.140625 C 3.734375 -1.140625 4.039062 -1.25 4.28125 -1.46875 C 4.519531 -1.695312 4.644531 -2.0625 4.65625 -2.5625 C 4.664062 -2.84375 4.671875 -3.101562 4.671875 -3.34375 C 4.671875 -3.59375 4.664062 -3.851562 4.65625 -4.125 C 4.644531 -4.457031 4.582031 -4.726562 4.46875 -4.9375 C 4.351562 -5.15625 4.203125 -5.3125 4.015625 -5.40625 C 3.828125 -5.5 3.609375 -5.546875 3.359375 -5.546875 C 3.117188 -5.546875 2.898438 -5.5 2.703125 -5.40625 C 2.515625 -5.3125 2.363281 -5.15625 2.25 -4.9375 C 2.132812 -4.726562 2.070312 -4.457031 2.0625 -4.125 C 2.0625 -3.851562 2.0625 -3.59375 2.0625 -3.34375 C 2.0625 -3.101562 2.0625 -2.84375 2.0625 -2.5625 C 2.082031 -2.0625 2.207031 -1.695312 2.4375 -1.46875 C 2.675781 -1.25 2.984375 -1.140625 3.359375 -1.140625 Z M 3.359375 -1.140625" transform="translate(248.6 236.96)"/></g></g></g><g fill="#233356"><g><g><path d="M 0.9375 0 C 0.875 0 0.816406 -0.0195312 0.765625 -0.0625 C 0.722656 -0.113281 0.703125 -0.171875 0.703125 -0.234375 L 0.703125 -6.453125 C 0.703125 -6.523438 0.722656 -6.582031 0.765625 -6.625 C 0.816406 -6.664062 0.875 -6.6875 0.9375 -6.6875 L 3.484375 -6.6875 C 4.273438 -6.6875 4.898438 -6.503906 5.359375 -6.140625 C 5.816406 -5.773438 6.046875 -5.25 6.046875 -4.5625 C 6.046875 -4.09375 5.9375 -3.703125 5.71875 -3.390625 C 5.5 -3.078125 5.195312 -2.847656 4.8125 -2.703125 L 6.171875 -0.3125 C 6.191406 -0.269531 6.203125 -0.234375 6.203125 -0.203125 C 6.203125 -0.148438 6.179688 -0.101562 6.140625 -0.0625 C 6.097656 -0.0195312 6.050781 0 6 0 L 4.9375 0 C 4.820312 0 4.734375 -0.03125 4.671875 -0.09375 C 4.617188 -0.15625 4.578125 -0.210938 4.546875 -0.265625 L 3.390625 -2.453125 L 2.234375 -2.453125 L 2.234375 -0.234375 C 2.234375 -0.171875 2.207031 -0.113281 2.15625 -0.0625 C 2.113281 -0.0195312 2.054688 0 1.984375 0 Z M 2.234375 -3.65625 L 3.46875 -3.65625 C 3.8125 -3.65625 4.066406 -3.734375 4.234375 -3.890625 C 4.398438 -4.054688 4.484375 -4.285156 4.484375 -4.578125 C 4.484375 -4.859375 4.398438 -5.082031 4.234375 -5.25 C 4.066406 -5.414062 3.8125 -5.5 3.46875 -5.5 L 2.234375 -5.5 Z M 2.234375 -3.65625" transform="translate(265.08 236.96)"/></g></g></g><g fill="#233356"><g><g><path d="M 0.9375 0 C 0.875 0 0.816406 -0.0195312 0.765625 -0.0625 C 0.722656 -0.113281 0.703125 -0.171875 0.703125 -0.234375 L 0.703125 -6.453125 C 0.703125 -6.523438 0.722656 -6.582031 0.765625 -6.625 C 0.816406 -6.664062 0.875 -6.6875 0.9375 -6.6875 L 3.34375 -6.6875 C 3.976562 -6.6875 4.507812 -6.585938 4.9375 -6.390625 C 5.363281 -6.191406 5.691406 -5.898438 5.921875 -5.515625 C 6.148438 -5.128906 6.269531 -4.648438 6.28125 -4.078125 C 6.289062 -3.796875 6.296875 -3.550781 6.296875 -3.34375 C 6.296875 -3.132812 6.289062 -2.894531 6.28125 -2.625 C 6.257812 -2.03125 6.140625 -1.535156 5.921875 -1.140625 C 5.710938 -0.753906 5.394531 -0.46875 4.96875 -0.28125 C 4.550781 -0.09375 4.023438 0 3.390625 0 Z M 2.234375 -1.25 L 3.34375 -1.25 C 3.664062 -1.25 3.925781 -1.289062 4.125 -1.375 C 4.320312 -1.46875 4.472656 -1.617188 4.578125 -1.828125 C 4.679688 -2.035156 4.738281 -2.304688 4.75 -2.640625 C 4.75 -2.828125 4.75 -2.992188 4.75 -3.140625 C 4.757812 -3.285156 4.757812 -3.429688 4.75 -3.578125 C 4.75 -3.722656 4.75 -3.882812 4.75 -4.0625 C 4.726562 -4.539062 4.601562 -4.890625 4.375 -5.109375 C 4.144531 -5.335938 3.785156 -5.453125 3.296875 -5.453125 L 2.234375 -5.453125 Z M 2.234375 -1.25" transform="translate(281.359 236.96)"/></g></g></g><g fill="#233356"><g><g><path d="M 3.125 0.09375 C 2.507812 0.09375 1.992188 0.00390625 1.578125 -0.171875 C 1.171875 -0.347656 0.859375 -0.578125 0.640625 -0.859375 C 0.429688 -1.148438 0.320312 -1.457031 0.3125 -1.78125 C 0.3125 -1.84375 0.332031 -1.890625 0.375 -1.921875 C 0.414062 -1.960938 0.460938 -1.984375 0.515625 -1.984375 L 1.546875 -1.984375 C 1.628906 -1.984375 1.691406 -1.96875 1.734375 -1.9375 C 1.785156 -1.90625 1.828125 -1.863281 1.859375 -1.8125 C 1.910156 -1.695312 1.984375 -1.585938 2.078125 -1.484375 C 2.179688 -1.390625 2.316406 -1.304688 2.484375 -1.234375 C 2.648438 -1.171875 2.863281 -1.140625 3.125 -1.140625 C 3.53125 -1.140625 3.835938 -1.207031 4.046875 -1.34375 C 4.253906 -1.476562 4.359375 -1.660156 4.359375 -1.890625 C 4.359375 -2.046875 4.300781 -2.175781 4.1875 -2.28125 C 4.082031 -2.382812 3.910156 -2.476562 3.671875 -2.5625 C 3.429688 -2.644531 3.113281 -2.734375 2.71875 -2.828125 C 2.238281 -2.929688 1.832031 -3.0625 1.5 -3.21875 C 1.164062 -3.382812 0.910156 -3.597656 0.734375 -3.859375 C 0.566406 -4.117188 0.484375 -4.4375 0.484375 -4.8125 C 0.484375 -5.195312 0.585938 -5.535156 0.796875 -5.828125 C 1.015625 -6.128906 1.3125 -6.363281 1.6875 -6.53125 C 2.070312 -6.707031 2.53125 -6.796875 3.0625 -6.796875 C 3.488281 -6.796875 3.863281 -6.734375 4.1875 -6.609375 C 4.519531 -6.492188 4.796875 -6.34375 5.015625 -6.15625 C 5.234375 -5.976562 5.398438 -5.785156 5.515625 -5.578125 C 5.628906 -5.367188 5.691406 -5.164062 5.703125 -4.96875 C 5.703125 -4.90625 5.679688 -4.851562 5.640625 -4.8125 C 5.609375 -4.769531 5.5625 -4.75 5.5 -4.75 L 4.421875 -4.75 C 4.359375 -4.75 4.300781 -4.757812 4.25 -4.78125 C 4.195312 -4.8125 4.15625 -4.859375 4.125 -4.921875 C 4.09375 -5.097656 3.984375 -5.242188 3.796875 -5.359375 C 3.609375 -5.484375 3.363281 -5.546875 3.0625 -5.546875 C 2.75 -5.546875 2.5 -5.488281 2.3125 -5.375 C 2.132812 -5.269531 2.046875 -5.097656 2.046875 -4.859375 C 2.046875 -4.703125 2.09375 -4.570312 2.1875 -4.46875 C 2.28125 -4.363281 2.4375 -4.269531 2.65625 -4.1875 C 2.875 -4.113281 3.164062 -4.03125 3.53125 -3.9375 C 4.09375 -3.820312 4.546875 -3.679688 4.890625 -3.515625 C 5.242188 -3.359375 5.503906 -3.15625 5.671875 -2.90625 C 5.835938 -2.65625 5.921875 -2.335938 5.921875 -1.953125 C 5.921875 -1.523438 5.800781 -1.15625 5.5625 -0.84375 C 5.332031 -0.539062 5.003906 -0.304688 4.578125 -0.140625 C 4.160156 0.015625 3.675781 0.09375 3.125 0.09375 Z M 3.125 0.09375" transform="translate(297.895 236.96)"/></g></g></g><g fill="#233356"><g><g><path d="M 13.160156 -23.4375 C 14.664062 -23.4375 16.167969 -23.113281 17.628906 -22.789062 C 18.765625 -22.503906 20.027344 -22.136719 21.203125 -22.136719 C 21.894531 -22.136719 22.261719 -22.464844 22.261719 -23.152344 C 22.261719 -29.449219 17.792969 -29.53125 12.835938 -29.53125 C 7.515625 -29.53125 1.828125 -26.605469 1.828125 -20.636719 C 1.828125 -16.085938 6.417969 -12.917969 10.398438 -11.78125 C 11.578125 -11.453125 12.835938 -11.25 13.851562 -10.519531 C 14.542969 -10.035156 14.785156 -9.425781 14.785156 -8.570312 C 14.785156 -6.742188 12.917969 -6.214844 11.414062 -6.214844 C 9.871094 -6.214844 8.367188 -6.660156 6.90625 -7.109375 C 5.726562 -7.472656 4.46875 -8.003906 3.210938 -8.003906 C 2.761719 -8.003906 2.722656 -7.636719 2.722656 -7.269531 C 2.722656 -0.773438 7.191406 -0.0390625 12.59375 -0.0390625 C 18.074219 -0.0390625 23.234375 -3.738281 23.234375 -9.546875 C 23.234375 -18.523438 10.195312 -17.0625 10.195312 -21.203125 C 10.195312 -22.910156 11.699219 -23.4375 13.160156 -23.4375 Z M 13.160156 -23.4375" transform="translate(65.414 222.828)"/></g></g></g><g fill="#233356"><g><g><path d="M 25.429688 -24.128906 C 25.429688 -24.574219 25.304688 -26.28125 25.183594 -26.648438 C 24.089844 -29.652344 14.828125 -29.164062 12.347656 -29.164062 C 10.238281 -29.164062 4.386719 -29.042969 2.882812 -27.582031 C 2.273438 -26.972656 2.113281 -25.0625 2.113281 -24.210938 C 2.113281 -20.351562 8.449219 -24.492188 9.261719 -20.148438 C 9.425781 -19.171875 9.464844 -18.15625 9.464844 -17.183594 C 9.464844 -15.109375 9.382812 -13.078125 9.382812 -11.007812 C 9.382812 -8.816406 9.34375 -2.070312 11.375 -0.851562 C 12.0625 -0.445312 13.078125 -0.488281 13.890625 -0.488281 C 14.828125 -0.488281 15.964844 -0.445312 16.695312 -1.136719 C 17.996094 -2.398438 18.117188 -10.84375 18.117188 -12.875 C 18.117188 -14.542969 18.035156 -16.167969 18.035156 -17.832031 C 18.035156 -20.269531 18.523438 -22.503906 21.449219 -22.503906 C 22.058594 -22.503906 22.625 -22.421875 23.234375 -22.421875 C 24.414062 -22.421875 25.429688 -22.746094 25.429688 -24.128906 Z M 25.429688 -24.128906" transform="translate(90.435 222.828)"/></g></g></g><g fill="#233356"><g><g><path d="M 6.988281 -0.773438 C 12.714844 -0.773438 6.863281 -6.011719 13.8125 -6.011719 C 22.261719 -6.011719 16.125 -0.730469 20.960938 -0.730469 C 22.949219 -0.730469 26.402344 -0.730469 26.402344 -3.535156 C 26.402344 -7.515625 20.675781 -24.574219 18.199219 -27.621094 C 17.0625 -29.003906 16.085938 -29.207031 14.378906 -29.207031 C 13.28125 -29.207031 12.46875 -29.207031 11.535156 -28.554688 C 8.449219 -26.484375 2.398438 -7.878906 2.398438 -3.898438 C 2.398438 -0.609375 4.386719 -0.773438 6.988281 -0.773438 Z M 14.054688 -11.859375 C 13.121094 -11.859375 12.265625 -12.0625 12.265625 -13.160156 C 12.265625 -14.054688 13.484375 -20.230469 14.296875 -20.230469 C 15.273438 -20.230469 16.328125 -14.136719 16.328125 -13.203125 C 16.328125 -12.347656 15.71875 -11.859375 14.90625 -11.859375 Z M 14.054688 -11.859375" transform="translate(117.893 222.828)"/></g></g></g><g fill="#233356"><g><g><path d="M 16.492188 -6.335938 C 11.535156 -6.335938 9.382812 -10.601562 9.382812 -15.03125 C 9.382812 -19.214844 11.496094 -23.195312 16.125 -23.195312 C 18.320312 -23.195312 20.351562 -22.261719 22.542969 -22.261719 C 23.355469 -22.261719 23.480469 -22.746094 23.480469 -23.4375 C 23.480469 -24.695312 23.519531 -26.6875 22.625 -27.664062 C 21.609375 -28.800781 18.074219 -29.367188 16.574219 -29.449219 C 15.882812 -29.492188 15.191406 -29.492188 14.5 -29.492188 C 6.378906 -29.492188 0.894531 -22.625 0.894531 -14.828125 C 0.894531 -6.742188 6.539062 -0.121094 14.867188 -0.121094 C 16.734375 -0.121094 21.609375 -0.527344 22.949219 -1.867188 C 23.761719 -2.679688 23.84375 -4.914062 23.84375 -6.011719 C 23.84375 -7.027344 23.316406 -7.269531 22.382812 -7.269531 C 20.351562 -7.269531 18.480469 -6.335938 16.492188 -6.335938 Z M 16.492188 -6.335938" transform="translate(146.57 222.828)"/></g></g></g><g fill="#547FDD"><g><g><path d="M 2.679688 -15.761719 C 2.679688 -12.835938 2.640625 -3.574219 4.671875 -1.585938 C 5.402344 -0.851562 7.433594 -0.648438 8.449219 -0.648438 C 10.480469 -0.648438 11.128906 -2.070312 11.128906 -3.941406 C 11.128906 -5.238281 11.007812 -6.582031 11.007812 -7.878906 C 11.007812 -8.410156 10.925781 -11.128906 11.738281 -11.128906 C 14.378906 -11.128906 15.761719 -0.730469 20.839844 -0.730469 C 21.894531 -0.730469 26.039062 -0.773438 26.039062 -2.316406 C 26.039062 -5.808594 20.148438 -11.332031 20.148438 -15.84375 C 20.148438 -18.683594 25.632812 -24.65625 25.632812 -27.175781 C 25.632812 -28.71875 23.152344 -28.921875 22.015625 -28.921875 C 20.636719 -28.921875 19.539062 -29.042969 18.359375 -28.230469 C 17.667969 -27.742188 17.101562 -27.132812 16.574219 -26.484375 C 16.046875 -25.792969 15.597656 -25.023438 15.234375 -24.210938 C 14.664062 -22.949219 13.078125 -19.457031 11.535156 -19.457031 C 11.007812 -19.457031 11.007812 -20.308594 11.007812 -20.675781 C 11.007812 -22.136719 11.128906 -23.558594 11.128906 -25.023438 C 11.128906 -26.199219 11.292969 -28.515625 9.75 -28.800781 C 9.261719 -28.882812 8.734375 -28.921875 8.246094 -28.921875 C 7.066406 -28.921875 5.847656 -28.839844 4.875 -28.109375 C 2.722656 -26.445312 2.679688 -18.402344 2.679688 -15.761719 Z M 2.679688 -15.761719" transform="translate(173.212 222.828)"/></g></g></g><g fill="#233356"><g><g><path d="M 16.492188 -6.335938 C 11.535156 -6.335938 9.382812 -10.601562 9.382812 -15.03125 C 9.382812 -19.214844 11.496094 -23.195312 16.125 -23.195312 C 18.320312 -23.195312 20.351562 -22.261719 22.542969 -22.261719 C 23.355469 -22.261719 23.480469 -22.746094 23.480469 -23.4375 C 23.480469 -24.695312 23.519531 -26.6875 22.625 -27.664062 C 21.609375 -28.800781 18.074219 -29.367188 16.574219 -29.449219 C 15.882812 -29.492188 15.191406 -29.492188 14.5 -29.492188 C 6.378906 -29.492188 0.894531 -22.625 0.894531 -14.828125 C 0.894531 -6.742188 6.539062 -0.121094 14.867188 -0.121094 C 16.734375 -0.121094 21.609375 -0.527344 22.949219 -1.867188 C 23.761719 -2.679688 23.84375 -4.914062 23.84375 -6.011719 C 23.84375 -7.027344 23.316406 -7.269531 22.382812 -7.269531 C 20.351562 -7.269531 18.480469 -6.335938 16.492188 -6.335938 Z M 16.492188 -6.335938" transform="translate(201.888 222.828)"/></g></g></g><g fill="#233356"><g><g><path d="M 6.988281 -0.773438 C 12.714844 -0.773438 6.863281 -6.011719 13.8125 -6.011719 C 22.261719 -6.011719 16.125 -0.730469 20.960938 -0.730469 C 22.949219 -0.730469 26.402344 -0.730469 26.402344 -3.535156 C 26.402344 -7.515625 20.675781 -24.574219 18.199219 -27.621094 C 17.0625 -29.003906 16.085938 -29.207031 14.378906 -29.207031 C 13.28125 -29.207031 12.46875 -29.207031 11.535156 -28.554688 C 8.449219 -26.484375 2.398438 -7.878906 2.398438 -3.898438 C 2.398438 -0.609375 4.386719 -0.773438 6.988281 -0.773438 Z M 14.054688 -11.859375 C 13.121094 -11.859375 12.265625 -12.0625 12.265625 -13.160156 C 12.265625 -14.054688 13.484375 -20.230469 14.296875 -20.230469 C 15.273438 -20.230469 16.328125 -14.136719 16.328125 -13.203125 C 16.328125 -12.347656 15.71875 -11.859375 14.90625 -11.859375 Z M 14.054688 -11.859375" transform="translate(228.534 222.828)"/></g></g></g><g fill="#233356"><g><g><path d="M 25.429688 -24.128906 C 25.429688 -24.574219 25.304688 -26.28125 25.183594 -26.648438 C 24.089844 -29.652344 14.828125 -29.164062 12.347656 -29.164062 C 10.238281 -29.164062 4.386719 -29.042969 2.882812 -27.582031 C 2.273438 -26.972656 2.113281 -25.0625 2.113281 -24.210938 C 2.113281 -20.351562 8.449219 -24.492188 9.261719 -20.148438 C 9.425781 -19.171875 9.464844 -18.15625 9.464844 -17.183594 C 9.464844 -15.109375 9.382812 -13.078125 9.382812 -11.007812 C 9.382812 -8.816406 9.34375 -2.070312 11.375 -0.851562 C 12.0625 -0.445312 13.078125 -0.488281 13.890625 -0.488281 C 14.828125 -0.488281 15.964844 -0.445312 16.695312 -1.136719 C 17.996094 -2.398438 18.117188 -10.84375 18.117188 -12.875 C 18.117188 -14.542969 18.035156 -16.167969 18.035156 -17.832031 C 18.035156 -20.269531 18.523438 -22.503906 21.449219 -22.503906 C 22.058594 -22.503906 22.625 -22.421875 23.234375 -22.421875 C 24.414062 -22.421875 25.429688 -22.746094 25.429688 -24.128906 Z M 25.429688 -24.128906" transform="translate(257.21 222.828)"/></g></g></g><g fill="#233356"><g><g><path d="M 13.160156 -23.4375 C 14.664062 -23.4375 16.167969 -23.113281 17.628906 -22.789062 C 18.765625 -22.503906 20.027344 -22.136719 21.203125 -22.136719 C 21.894531 -22.136719 22.261719 -22.464844 22.261719 -23.152344 C 22.261719 -29.449219 17.792969 -29.53125 12.835938 -29.53125 C 7.515625 -29.53125 1.828125 -26.605469 1.828125 -20.636719 C 1.828125 -16.085938 6.417969 -12.917969 10.398438 -11.78125 C 11.578125 -11.453125 12.835938 -11.25 13.851562 -10.519531 C 14.542969 -10.035156 14.785156 -9.425781 14.785156 -8.570312 C 14.785156 -6.742188 12.917969 -6.214844 11.414062 -6.214844 C 9.871094 -6.214844 8.367188 -6.660156 6.90625 -7.109375 C 5.726562 -7.472656 4.46875 -8.003906 3.210938 -8.003906 C 2.761719 -8.003906 2.722656 -7.636719 2.722656 -7.269531 C 2.722656 -0.773438 7.191406 -0.0390625 12.59375 -0.0390625 C 18.074219 -0.0390625 23.234375 -3.738281 23.234375 -9.546875 C 23.234375 -18.523438 10.195312 -17.0625 10.195312 -21.203125 C 10.195312 -22.910156 11.699219 -23.4375 13.160156 -23.4375 Z M 13.160156 -23.4375" transform="translate(284.669 222.828)"/></g></g></g></svg>